<mxfile host="app.diagrams.net" agent="Mozilla/5.0 (Windows NT 10.0; Win64; x64) AppleWebKit/537.36 (KHTML, like Gecko) Chrome/133.0.0.0 Safari/537.36" version="26.0.16" pages="2">
  <diagram id="0Gr9N_-wlW-18Qj0PYBJ" name="Page-2">
    <mxGraphModel dx="2928" dy="1132" grid="1" gridSize="10" guides="1" tooltips="1" connect="1" arrows="1" fold="1" page="1" pageScale="1" pageWidth="850" pageHeight="1100" math="0" shadow="0">
      <root>
        <mxCell id="0" />
        <mxCell id="1" parent="0" />
        <mxCell id="ABHrJie6u180xDhGWkQH-1" value="" style="shape=umlLifeline;perimeter=lifelinePerimeter;whiteSpace=wrap;html=1;container=1;dropTarget=0;collapsible=0;recursiveResize=0;outlineConnect=0;portConstraint=eastwest;newEdgeStyle={&quot;curved&quot;:0,&quot;rounded&quot;:0};participant=umlActor;" vertex="1" parent="1">
          <mxGeometry x="90" y="90" width="20" height="890" as="geometry" />
        </mxCell>
        <mxCell id="Kw06DqIlP64NfZC9uZfV-42" value="" style="html=1;points=[[0,0,0,0,5],[0,1,0,0,-5],[1,0,0,0,5],[1,1,0,0,-5]];perimeter=orthogonalPerimeter;outlineConnect=0;targetShapes=umlLifeline;portConstraint=eastwest;newEdgeStyle={&quot;curved&quot;:0,&quot;rounded&quot;:0};fillColor=#d5e8d4;strokeColor=#82b366;" vertex="1" parent="ABHrJie6u180xDhGWkQH-1">
          <mxGeometry x="10" y="70" width="10" height="790" as="geometry" />
        </mxCell>
        <mxCell id="ABHrJie6u180xDhGWkQH-2" value="PlanItOut&lt;br&gt;&amp;nbsp;Website" style="shape=umlLifeline;perimeter=lifelinePerimeter;whiteSpace=wrap;html=1;container=1;dropTarget=0;collapsible=0;recursiveResize=0;outlineConnect=0;portConstraint=eastwest;newEdgeStyle={&quot;curved&quot;:0,&quot;rounded&quot;:0};" vertex="1" parent="1">
          <mxGeometry x="220" y="90" width="100" height="870" as="geometry" />
        </mxCell>
        <mxCell id="Kw06DqIlP64NfZC9uZfV-43" value="" style="html=1;points=[[0,0,0,0,5],[0,1,0,0,-5],[1,0,0,0,5],[1,1,0,0,-5]];perimeter=orthogonalPerimeter;outlineConnect=0;targetShapes=umlLifeline;portConstraint=eastwest;newEdgeStyle={&quot;curved&quot;:0,&quot;rounded&quot;:0};fillColor=#d5e8d4;strokeColor=#82b366;" vertex="1" parent="ABHrJie6u180xDhGWkQH-2">
          <mxGeometry x="45" y="80" width="10" height="790" as="geometry" />
        </mxCell>
        <mxCell id="ABHrJie6u180xDhGWkQH-4" value="Backend Server" style="shape=umlLifeline;perimeter=lifelinePerimeter;whiteSpace=wrap;html=1;container=1;dropTarget=0;collapsible=0;recursiveResize=0;outlineConnect=0;portConstraint=eastwest;newEdgeStyle={&quot;curved&quot;:0,&quot;rounded&quot;:0};" vertex="1" parent="1">
          <mxGeometry x="380" y="90" width="100" height="880" as="geometry" />
        </mxCell>
        <mxCell id="Kw06DqIlP64NfZC9uZfV-44" value="" style="html=1;points=[[0,0,0,0,5],[0,1,0,0,-5],[1,0,0,0,5],[1,1,0,0,-5]];perimeter=orthogonalPerimeter;outlineConnect=0;targetShapes=umlLifeline;portConstraint=eastwest;newEdgeStyle={&quot;curved&quot;:0,&quot;rounded&quot;:0};fillColor=#d5e8d4;strokeColor=#82b366;" vertex="1" parent="ABHrJie6u180xDhGWkQH-4">
          <mxGeometry x="45" y="80" width="10" height="800" as="geometry" />
        </mxCell>
        <mxCell id="ABHrJie6u180xDhGWkQH-5" value="Database" style="shape=umlLifeline;perimeter=lifelinePerimeter;whiteSpace=wrap;html=1;container=1;dropTarget=0;collapsible=0;recursiveResize=0;outlineConnect=0;portConstraint=eastwest;newEdgeStyle={&quot;curved&quot;:0,&quot;rounded&quot;:0};" vertex="1" parent="1">
          <mxGeometry x="580" y="90" width="100" height="875" as="geometry" />
        </mxCell>
        <mxCell id="Kw06DqIlP64NfZC9uZfV-45" value="" style="html=1;points=[[0,0,0,0,5],[0,1,0,0,-5],[1,0,0,0,5],[1,1,0,0,-5]];perimeter=orthogonalPerimeter;outlineConnect=0;targetShapes=umlLifeline;portConstraint=eastwest;newEdgeStyle={&quot;curved&quot;:0,&quot;rounded&quot;:0};fillColor=#d5e8d4;strokeColor=#82b366;" vertex="1" parent="ABHrJie6u180xDhGWkQH-5">
          <mxGeometry x="45" y="160" width="10" height="715" as="geometry" />
        </mxCell>
        <mxCell id="ABHrJie6u180xDhGWkQH-6" value="&lt;b&gt;Add a family member&lt;/b&gt;" style="text;html=1;align=center;verticalAlign=middle;whiteSpace=wrap;rounded=0;" vertex="1" parent="1">
          <mxGeometry x="400" y="10" width="190" height="30" as="geometry" />
        </mxCell>
        <mxCell id="ABHrJie6u180xDhGWkQH-7" value="" style="endArrow=classic;html=1;rounded=0;" edge="1" parent="1" target="ABHrJie6u180xDhGWkQH-2">
          <mxGeometry width="50" height="50" relative="1" as="geometry">
            <mxPoint x="100" y="200" as="sourcePoint" />
            <mxPoint x="150" y="150" as="targetPoint" />
          </mxGeometry>
        </mxCell>
        <mxCell id="ABHrJie6u180xDhGWkQH-8" value="Click on &lt;br&gt;Add Family Member" style="edgeLabel;html=1;align=center;verticalAlign=middle;resizable=0;points=[];" vertex="1" connectable="0" parent="ABHrJie6u180xDhGWkQH-7">
          <mxGeometry x="0.0167" relative="1" as="geometry">
            <mxPoint as="offset" />
          </mxGeometry>
        </mxCell>
        <mxCell id="ABHrJie6u180xDhGWkQH-9" value="" style="endArrow=classic;html=1;rounded=0;" edge="1" parent="1" target="ABHrJie6u180xDhGWkQH-4">
          <mxGeometry width="50" height="50" relative="1" as="geometry">
            <mxPoint x="270" y="240" as="sourcePoint" />
            <mxPoint x="320" y="190" as="targetPoint" />
          </mxGeometry>
        </mxCell>
        <mxCell id="ABHrJie6u180xDhGWkQH-10" value="GetFamilyInfo()" style="edgeLabel;html=1;align=center;verticalAlign=middle;resizable=0;points=[];" vertex="1" connectable="0" parent="ABHrJie6u180xDhGWkQH-9">
          <mxGeometry x="0.1034" y="-3" relative="1" as="geometry">
            <mxPoint as="offset" />
          </mxGeometry>
        </mxCell>
        <mxCell id="ABHrJie6u180xDhGWkQH-12" value="" style="endArrow=open;endFill=1;endSize=12;html=1;rounded=0;" edge="1" parent="1" target="ABHrJie6u180xDhGWkQH-5">
          <mxGeometry width="160" relative="1" as="geometry">
            <mxPoint x="430" y="270" as="sourcePoint" />
            <mxPoint x="590" y="270" as="targetPoint" />
          </mxGeometry>
        </mxCell>
        <mxCell id="ABHrJie6u180xDhGWkQH-13" value="Query Family Table" style="edgeLabel;html=1;align=center;verticalAlign=middle;resizable=0;points=[];" vertex="1" connectable="0" parent="ABHrJie6u180xDhGWkQH-12">
          <mxGeometry x="0.0426" y="-2" relative="1" as="geometry">
            <mxPoint as="offset" />
          </mxGeometry>
        </mxCell>
        <mxCell id="ABHrJie6u180xDhGWkQH-16" value="alternative" style="shape=umlFrame;whiteSpace=wrap;html=1;pointerEvents=0;recursiveResize=0;container=1;collapsible=0;width=170;" vertex="1" parent="1">
          <mxGeometry x="20" y="300" width="650" height="190" as="geometry" />
        </mxCell>
        <mxCell id="ABHrJie6u180xDhGWkQH-17" value="[If family detail &lt;br&gt;is present]" style="text;html=1;" vertex="1" parent="ABHrJie6u180xDhGWkQH-16">
          <mxGeometry width="100" height="20" relative="1" as="geometry">
            <mxPoint x="20" y="40" as="offset" />
          </mxGeometry>
        </mxCell>
        <mxCell id="ABHrJie6u180xDhGWkQH-18" value="[if family detail&lt;br&gt;&amp;nbsp;is not present]" style="line;strokeWidth=1;dashed=1;labelPosition=center;verticalLabelPosition=bottom;align=left;verticalAlign=top;spacingLeft=20;spacingTop=15;html=1;whiteSpace=wrap;" vertex="1" parent="ABHrJie6u180xDhGWkQH-16">
          <mxGeometry y="80" width="650" height="10" as="geometry" />
        </mxCell>
        <mxCell id="Kw06DqIlP64NfZC9uZfV-3" value="" style="html=1;verticalAlign=bottom;labelBackgroundColor=none;endArrow=block;endFill=1;dashed=1;rounded=0;" edge="1" parent="ABHrJie6u180xDhGWkQH-16">
          <mxGeometry width="160" relative="1" as="geometry">
            <mxPoint x="604.5" y="30" as="sourcePoint" />
            <mxPoint x="410" y="30" as="targetPoint" />
          </mxGeometry>
        </mxCell>
        <mxCell id="Kw06DqIlP64NfZC9uZfV-4" value="family details" style="edgeLabel;html=1;align=center;verticalAlign=middle;resizable=0;points=[];" vertex="1" connectable="0" parent="Kw06DqIlP64NfZC9uZfV-3">
          <mxGeometry x="-0.1722" relative="1" as="geometry">
            <mxPoint x="1" as="offset" />
          </mxGeometry>
        </mxCell>
        <mxCell id="Kw06DqIlP64NfZC9uZfV-6" value="" style="html=1;verticalAlign=bottom;labelBackgroundColor=none;endArrow=block;endFill=1;dashed=1;rounded=0;" edge="1" parent="ABHrJie6u180xDhGWkQH-16">
          <mxGeometry width="160" relative="1" as="geometry">
            <mxPoint x="604.5" y="120" as="sourcePoint" />
            <mxPoint x="410" y="120" as="targetPoint" />
            <Array as="points">
              <mxPoint x="510" y="120" />
            </Array>
          </mxGeometry>
        </mxCell>
        <mxCell id="Kw06DqIlP64NfZC9uZfV-7" value="FAMILY NOT PRESENT" style="edgeLabel;html=1;align=center;verticalAlign=middle;resizable=0;points=[];" vertex="1" connectable="0" parent="Kw06DqIlP64NfZC9uZfV-6">
          <mxGeometry x="-0.1722" relative="1" as="geometry">
            <mxPoint x="1" as="offset" />
          </mxGeometry>
        </mxCell>
        <mxCell id="Kw06DqIlP64NfZC9uZfV-8" value="" style="html=1;verticalAlign=bottom;labelBackgroundColor=none;endArrow=block;endFill=1;dashed=1;rounded=0;" edge="1" parent="ABHrJie6u180xDhGWkQH-16">
          <mxGeometry width="160" relative="1" as="geometry">
            <mxPoint x="405.5" y="144.5" as="sourcePoint" />
            <mxPoint x="250" y="145" as="targetPoint" />
            <Array as="points">
              <mxPoint x="311" y="144.5" />
            </Array>
          </mxGeometry>
        </mxCell>
        <mxCell id="Kw06DqIlP64NfZC9uZfV-9" value="FAMILY NOT PRESENT" style="edgeLabel;html=1;align=center;verticalAlign=middle;resizable=0;points=[];" vertex="1" connectable="0" parent="Kw06DqIlP64NfZC9uZfV-8">
          <mxGeometry x="-0.1722" relative="1" as="geometry">
            <mxPoint x="1" as="offset" />
          </mxGeometry>
        </mxCell>
        <mxCell id="Kw06DqIlP64NfZC9uZfV-12" value="" style="html=1;verticalAlign=bottom;labelBackgroundColor=none;endArrow=block;endFill=1;dashed=1;rounded=0;" edge="1" parent="ABHrJie6u180xDhGWkQH-16">
          <mxGeometry width="160" relative="1" as="geometry">
            <mxPoint x="245.5" y="170" as="sourcePoint" />
            <mxPoint x="90" y="170.5" as="targetPoint" />
            <Array as="points">
              <mxPoint x="151" y="170" />
            </Array>
          </mxGeometry>
        </mxCell>
        <mxCell id="Kw06DqIlP64NfZC9uZfV-13" value="Redirect to&lt;br&gt;Create Family page" style="edgeLabel;html=1;align=center;verticalAlign=middle;resizable=0;points=[];" vertex="1" connectable="0" parent="Kw06DqIlP64NfZC9uZfV-12">
          <mxGeometry x="-0.1722" relative="1" as="geometry">
            <mxPoint x="1" as="offset" />
          </mxGeometry>
        </mxCell>
        <mxCell id="Kw06DqIlP64NfZC9uZfV-5" value="Family" style="shape=umlLifeline;perimeter=lifelinePerimeter;whiteSpace=wrap;html=1;container=1;dropTarget=0;collapsible=0;recursiveResize=0;outlineConnect=0;portConstraint=eastwest;newEdgeStyle={&quot;curved&quot;:0,&quot;rounded&quot;:0};" vertex="1" parent="1">
          <mxGeometry x="770" y="90" width="100" height="870" as="geometry" />
        </mxCell>
        <mxCell id="Kw06DqIlP64NfZC9uZfV-46" value="" style="html=1;points=[[0,0,0,0,5],[0,1,0,0,-5],[1,0,0,0,5],[1,1,0,0,-5]];perimeter=orthogonalPerimeter;outlineConnect=0;targetShapes=umlLifeline;portConstraint=eastwest;newEdgeStyle={&quot;curved&quot;:0,&quot;rounded&quot;:0};fillColor=#d5e8d4;strokeColor=#82b366;" vertex="1" parent="Kw06DqIlP64NfZC9uZfV-5">
          <mxGeometry x="45" y="410" width="10" height="460" as="geometry" />
        </mxCell>
        <mxCell id="Kw06DqIlP64NfZC9uZfV-14" value="" style="endArrow=blockThin;endFill=1;endSize=12;html=1;rounded=0;" edge="1" parent="1" target="Kw06DqIlP64NfZC9uZfV-5">
          <mxGeometry width="160" relative="1" as="geometry">
            <mxPoint x="425" y="520" as="sourcePoint" />
            <mxPoint x="585" y="520" as="targetPoint" />
            <Array as="points">
              <mxPoint x="515" y="520" />
            </Array>
          </mxGeometry>
        </mxCell>
        <mxCell id="Kw06DqIlP64NfZC9uZfV-15" value="Create Family Object&amp;nbsp;" style="edgeLabel;html=1;align=center;verticalAlign=middle;resizable=0;points=[];" vertex="1" connectable="0" parent="Kw06DqIlP64NfZC9uZfV-14">
          <mxGeometry x="-0.2446" y="-2" relative="1" as="geometry">
            <mxPoint as="offset" />
          </mxGeometry>
        </mxCell>
        <mxCell id="Kw06DqIlP64NfZC9uZfV-16" value="" style="endArrow=block;dashed=1;endFill=0;endSize=12;html=1;rounded=0;" edge="1" parent="1" target="ABHrJie6u180xDhGWkQH-4">
          <mxGeometry width="160" relative="1" as="geometry">
            <mxPoint x="820" y="560" as="sourcePoint" />
            <mxPoint x="660" y="560" as="targetPoint" />
          </mxGeometry>
        </mxCell>
        <mxCell id="Kw06DqIlP64NfZC9uZfV-17" value="Family" style="edgeLabel;html=1;align=center;verticalAlign=middle;resizable=0;points=[];" vertex="1" connectable="0" parent="Kw06DqIlP64NfZC9uZfV-16">
          <mxGeometry x="0.1216" y="1" relative="1" as="geometry">
            <mxPoint as="offset" />
          </mxGeometry>
        </mxCell>
        <mxCell id="Kw06DqIlP64NfZC9uZfV-21" value="" style="endArrow=classic;html=1;rounded=0;" edge="1" parent="1">
          <mxGeometry width="50" height="50" relative="1" as="geometry">
            <mxPoint x="425" y="590" as="sourcePoint" />
            <mxPoint x="270" y="590" as="targetPoint" />
          </mxGeometry>
        </mxCell>
        <mxCell id="Kw06DqIlP64NfZC9uZfV-22" value="Get User details" style="edgeLabel;html=1;align=center;verticalAlign=middle;resizable=0;points=[];" vertex="1" connectable="0" parent="Kw06DqIlP64NfZC9uZfV-21">
          <mxGeometry x="-0.074" y="3" relative="1" as="geometry">
            <mxPoint as="offset" />
          </mxGeometry>
        </mxCell>
        <mxCell id="Kw06DqIlP64NfZC9uZfV-23" value="" style="endArrow=classic;html=1;rounded=0;" edge="1" parent="1">
          <mxGeometry width="50" height="50" relative="1" as="geometry">
            <mxPoint x="265" y="620" as="sourcePoint" />
            <mxPoint x="110" y="620" as="targetPoint" />
          </mxGeometry>
        </mxCell>
        <mxCell id="Kw06DqIlP64NfZC9uZfV-24" value="Enter User Details" style="edgeLabel;html=1;align=center;verticalAlign=middle;resizable=0;points=[];" vertex="1" connectable="0" parent="Kw06DqIlP64NfZC9uZfV-23">
          <mxGeometry x="-0.074" y="3" relative="1" as="geometry">
            <mxPoint as="offset" />
          </mxGeometry>
        </mxCell>
        <mxCell id="Kw06DqIlP64NfZC9uZfV-26" value="" style="endArrow=block;dashed=1;endFill=0;endSize=12;html=1;rounded=0;" edge="1" parent="1" target="ABHrJie6u180xDhGWkQH-2">
          <mxGeometry width="160" relative="1" as="geometry">
            <mxPoint x="100" y="670" as="sourcePoint" />
            <mxPoint x="260" y="670" as="targetPoint" />
          </mxGeometry>
        </mxCell>
        <mxCell id="Kw06DqIlP64NfZC9uZfV-27" value="User Details" style="edgeLabel;html=1;align=center;verticalAlign=middle;resizable=0;points=[];" vertex="1" connectable="0" parent="Kw06DqIlP64NfZC9uZfV-26">
          <mxGeometry x="-0.1032" y="-4" relative="1" as="geometry">
            <mxPoint as="offset" />
          </mxGeometry>
        </mxCell>
        <mxCell id="Kw06DqIlP64NfZC9uZfV-28" value="" style="endArrow=block;dashed=1;endFill=0;endSize=12;html=1;rounded=0;" edge="1" parent="1">
          <mxGeometry width="160" relative="1" as="geometry">
            <mxPoint x="265" y="700" as="sourcePoint" />
            <mxPoint x="425" y="700" as="targetPoint" />
          </mxGeometry>
        </mxCell>
        <mxCell id="Kw06DqIlP64NfZC9uZfV-29" value="User Details" style="edgeLabel;html=1;align=center;verticalAlign=middle;resizable=0;points=[];" vertex="1" connectable="0" parent="Kw06DqIlP64NfZC9uZfV-28">
          <mxGeometry x="-0.0125" y="-1" relative="1" as="geometry">
            <mxPoint as="offset" />
          </mxGeometry>
        </mxCell>
        <mxCell id="Kw06DqIlP64NfZC9uZfV-30" value="" style="endArrow=block;endFill=1;endSize=12;html=1;rounded=0;" edge="1" parent="1" target="Kw06DqIlP64NfZC9uZfV-5">
          <mxGeometry width="160" relative="1" as="geometry">
            <mxPoint x="430" y="740" as="sourcePoint" />
            <mxPoint x="590" y="740" as="targetPoint" />
          </mxGeometry>
        </mxCell>
        <mxCell id="Kw06DqIlP64NfZC9uZfV-31" value="Add Family Member" style="edgeLabel;html=1;align=center;verticalAlign=middle;resizable=0;points=[];" vertex="1" connectable="0" parent="Kw06DqIlP64NfZC9uZfV-30">
          <mxGeometry x="-0.0347" y="-5" relative="1" as="geometry">
            <mxPoint as="offset" />
          </mxGeometry>
        </mxCell>
        <mxCell id="Kw06DqIlP64NfZC9uZfV-33" value="" style="endArrow=classic;html=1;rounded=0;" edge="1" parent="1" target="ABHrJie6u180xDhGWkQH-5">
          <mxGeometry width="50" height="50" relative="1" as="geometry">
            <mxPoint x="820" y="780" as="sourcePoint" />
            <mxPoint x="710" y="780" as="targetPoint" />
          </mxGeometry>
        </mxCell>
        <mxCell id="Kw06DqIlP64NfZC9uZfV-34" value="Insert User Details" style="edgeLabel;html=1;align=center;verticalAlign=middle;resizable=0;points=[];" vertex="1" connectable="0" parent="Kw06DqIlP64NfZC9uZfV-33">
          <mxGeometry x="0.1654" y="1" relative="1" as="geometry">
            <mxPoint as="offset" />
          </mxGeometry>
        </mxCell>
        <mxCell id="Kw06DqIlP64NfZC9uZfV-35" value="" style="endArrow=block;dashed=1;endFill=0;endSize=12;html=1;rounded=0;" edge="1" parent="1" target="Kw06DqIlP64NfZC9uZfV-5">
          <mxGeometry width="160" relative="1" as="geometry">
            <mxPoint x="630" y="830" as="sourcePoint" />
            <mxPoint x="790" y="830" as="targetPoint" />
          </mxGeometry>
        </mxCell>
        <mxCell id="Kw06DqIlP64NfZC9uZfV-36" value="OK" style="edgeLabel;html=1;align=center;verticalAlign=middle;resizable=0;points=[];" vertex="1" connectable="0" parent="Kw06DqIlP64NfZC9uZfV-35">
          <mxGeometry x="-0.029" y="3" relative="1" as="geometry">
            <mxPoint as="offset" />
          </mxGeometry>
        </mxCell>
        <mxCell id="Kw06DqIlP64NfZC9uZfV-37" value="" style="endArrow=classic;html=1;rounded=0;dashed=1;" edge="1" parent="1" target="ABHrJie6u180xDhGWkQH-4">
          <mxGeometry width="50" height="50" relative="1" as="geometry">
            <mxPoint x="820" y="880" as="sourcePoint" />
            <mxPoint x="710" y="880" as="targetPoint" />
          </mxGeometry>
        </mxCell>
        <mxCell id="Kw06DqIlP64NfZC9uZfV-38" value="OK" style="edgeLabel;html=1;align=center;verticalAlign=middle;resizable=0;points=[];" vertex="1" connectable="0" parent="Kw06DqIlP64NfZC9uZfV-37">
          <mxGeometry x="-0.2932" y="2" relative="1" as="geometry">
            <mxPoint as="offset" />
          </mxGeometry>
        </mxCell>
        <mxCell id="Kw06DqIlP64NfZC9uZfV-39" value="OK" style="endArrow=classic;html=1;rounded=0;dashed=1;" edge="1" parent="1" target="ABHrJie6u180xDhGWkQH-2">
          <mxGeometry width="50" height="50" relative="1" as="geometry">
            <mxPoint x="430" y="910" as="sourcePoint" />
            <mxPoint x="40" y="910" as="targetPoint" />
          </mxGeometry>
        </mxCell>
        <mxCell id="Kw06DqIlP64NfZC9uZfV-41" value="Family Member Added" style="endArrow=classic;html=1;rounded=0;dashed=1;entryX=0.5;entryY=0.955;entryDx=0;entryDy=0;entryPerimeter=0;" edge="1" parent="1" target="ABHrJie6u180xDhGWkQH-1">
          <mxGeometry width="50" height="50" relative="1" as="geometry">
            <mxPoint x="270" y="940" as="sourcePoint" />
            <mxPoint x="110" y="940" as="targetPoint" />
          </mxGeometry>
        </mxCell>
      </root>
    </mxGraphModel>
  </diagram>
  <diagram id="tXe_T3dB-AEfn2zROOY-" name="template">
    <mxGraphModel dx="2928" dy="1132" grid="1" gridSize="10" guides="1" tooltips="1" connect="1" arrows="1" fold="1" page="1" pageScale="1" pageWidth="850" pageHeight="1100" math="0" shadow="0">
      <root>
        <mxCell id="0" />
        <mxCell id="1" parent="0" />
        <mxCell id="w8TSYB-Zl9jjQyUSUAuT-1" value="" style="shape=umlLifeline;perimeter=lifelinePerimeter;whiteSpace=wrap;html=1;container=1;dropTarget=0;collapsible=0;recursiveResize=0;outlineConnect=0;portConstraint=eastwest;newEdgeStyle={&quot;curved&quot;:0,&quot;rounded&quot;:0};participant=umlActor;" vertex="1" parent="1">
          <mxGeometry x="90" y="90" width="20" height="300" as="geometry" />
        </mxCell>
        <mxCell id="w8TSYB-Zl9jjQyUSUAuT-2" value="PlanItOut&lt;br&gt;&amp;nbsp;Website" style="shape=umlLifeline;perimeter=lifelinePerimeter;whiteSpace=wrap;html=1;container=1;dropTarget=0;collapsible=0;recursiveResize=0;outlineConnect=0;portConstraint=eastwest;newEdgeStyle={&quot;curved&quot;:0,&quot;rounded&quot;:0};" vertex="1" parent="1">
          <mxGeometry x="220" y="90" width="100" height="300" as="geometry" />
        </mxCell>
        <mxCell id="w8TSYB-Zl9jjQyUSUAuT-3" value="Backend Server" style="shape=umlLifeline;perimeter=lifelinePerimeter;whiteSpace=wrap;html=1;container=1;dropTarget=0;collapsible=0;recursiveResize=0;outlineConnect=0;portConstraint=eastwest;newEdgeStyle={&quot;curved&quot;:0,&quot;rounded&quot;:0};" vertex="1" parent="1">
          <mxGeometry x="380" y="90" width="100" height="300" as="geometry" />
        </mxCell>
        <mxCell id="w8TSYB-Zl9jjQyUSUAuT-4" value="Database" style="shape=umlLifeline;perimeter=lifelinePerimeter;whiteSpace=wrap;html=1;container=1;dropTarget=0;collapsible=0;recursiveResize=0;outlineConnect=0;portConstraint=eastwest;newEdgeStyle={&quot;curved&quot;:0,&quot;rounded&quot;:0};" vertex="1" parent="1">
          <mxGeometry x="580" y="90" width="100" height="300" as="geometry" />
        </mxCell>
        <mxCell id="w8TSYB-Zl9jjQyUSUAuT-5" value="Heading" style="text;html=1;align=center;verticalAlign=middle;whiteSpace=wrap;rounded=0;" vertex="1" parent="1">
          <mxGeometry x="400" y="10" width="120" height="30" as="geometry" />
        </mxCell>
        <mxCell id="w8TSYB-Zl9jjQyUSUAuT-6" value="" style="endArrow=classic;html=1;rounded=0;" edge="1" parent="1" target="w8TSYB-Zl9jjQyUSUAuT-2">
          <mxGeometry width="50" height="50" relative="1" as="geometry">
            <mxPoint x="100" y="200" as="sourcePoint" />
            <mxPoint x="150" y="150" as="targetPoint" />
          </mxGeometry>
        </mxCell>
        <mxCell id="w8TSYB-Zl9jjQyUSUAuT-8" value="" style="endArrow=classic;html=1;rounded=0;" edge="1" parent="1" target="w8TSYB-Zl9jjQyUSUAuT-3">
          <mxGeometry width="50" height="50" relative="1" as="geometry">
            <mxPoint x="270" y="240" as="sourcePoint" />
            <mxPoint x="320" y="190" as="targetPoint" />
          </mxGeometry>
        </mxCell>
        <mxCell id="w8TSYB-Zl9jjQyUSUAuT-10" value="" style="endArrow=open;endFill=1;endSize=12;html=1;rounded=0;" edge="1" parent="1" target="w8TSYB-Zl9jjQyUSUAuT-4">
          <mxGeometry width="160" relative="1" as="geometry">
            <mxPoint x="430" y="270" as="sourcePoint" />
            <mxPoint x="590" y="270" as="targetPoint" />
          </mxGeometry>
        </mxCell>
        <mxCell id="w8TSYB-Zl9jjQyUSUAuT-12" value="" style="endArrow=block;dashed=1;endFill=0;endSize=12;html=1;rounded=0;" edge="1" parent="1" target="w8TSYB-Zl9jjQyUSUAuT-3">
          <mxGeometry width="160" relative="1" as="geometry">
            <mxPoint x="630" y="310" as="sourcePoint" />
            <mxPoint x="470" y="310" as="targetPoint" />
          </mxGeometry>
        </mxCell>
        <mxCell id="w8TSYB-Zl9jjQyUSUAuT-14" value="Interaction heading" style="shape=umlFrame;whiteSpace=wrap;html=1;pointerEvents=0;recursiveResize=0;container=1;collapsible=0;width=170;" vertex="1" parent="1">
          <mxGeometry x="350" y="490" width="290" height="250" as="geometry" />
        </mxCell>
        <mxCell id="w8TSYB-Zl9jjQyUSUAuT-15" value="[constraint1]" style="text;html=1;" vertex="1" parent="w8TSYB-Zl9jjQyUSUAuT-14">
          <mxGeometry width="100" height="20" relative="1" as="geometry">
            <mxPoint x="20" y="40" as="offset" />
          </mxGeometry>
        </mxCell>
        <mxCell id="w8TSYB-Zl9jjQyUSUAuT-16" value="[constraint2]" style="line;strokeWidth=1;dashed=1;labelPosition=center;verticalLabelPosition=bottom;align=left;verticalAlign=top;spacingLeft=20;spacingTop=15;html=1;whiteSpace=wrap;" vertex="1" parent="w8TSYB-Zl9jjQyUSUAuT-14">
          <mxGeometry y="125" width="290" height="10" as="geometry" />
        </mxCell>
        <mxCell id="w8TSYB-Zl9jjQyUSUAuT-17" value="Text" style="text;strokeColor=none;align=center;fillColor=none;html=1;verticalAlign=middle;whiteSpace=wrap;rounded=0;" vertex="1" parent="1">
          <mxGeometry x="210" y="530" width="60" height="30" as="geometry" />
        </mxCell>
        <mxCell id="Rpuj-aYHiDlYggVhCAfE-1" value="" style="endArrow=block;dashed=1;endFill=0;endSize=12;html=1;rounded=0;" edge="1" parent="1">
          <mxGeometry width="160" relative="1" as="geometry">
            <mxPoint x="1230" y="300" as="sourcePoint" />
            <mxPoint x="1390" y="300" as="targetPoint" />
          </mxGeometry>
        </mxCell>
        <mxCell id="Rpuj-aYHiDlYggVhCAfE-2" value="" style="endArrow=classic;html=1;rounded=0;" edge="1" parent="1">
          <mxGeometry width="50" height="50" relative="1" as="geometry">
            <mxPoint x="1260" y="370" as="sourcePoint" />
            <mxPoint x="1370" y="370" as="targetPoint" />
          </mxGeometry>
        </mxCell>
      </root>
    </mxGraphModel>
  </diagram>
</mxfile>
